<?xml version="1.0" encoding="UTF-8" standalone="no"?>
<!-- Created with Inkscape (http://www.inkscape.org/) -->

<svg
   viewBox="-40 8 400 41"
   xmlns:dc="http://purl.org/dc/elements/1.1/"
   xmlns:cc="http://creativecommons.org/ns#"
   xmlns:rdf="http://www.w3.org/1999/02/22-rdf-syntax-ns#"
   xmlns:svg="http://www.w3.org/2000/svg"
   xmlns="http://www.w3.org/2000/svg"
   xmlns:sodipodi="http://sodipodi.sourceforge.net/DTD/sodipodi-0.dtd"
   xmlns:inkscape="http://www.inkscape.org/namespaces/inkscape"
   width="277.85941"
   height="59.134701"
   id="svg2"
   inkscape:label="Pozadí"
   version="1.1"
   inkscape:version="0.48.4 r9939"
   sodipodi:docname="logo.svg">
  <defs
     id="defs3">
    <inkscape:path-effect
       effect="skeletal"
       id="path-effect4062"
       is_visible="true"
       pattern="M 0,5 C 0,2.24 2.24,0 5,0 7.76,0 10,2.24 10,5 10,7.76 7.76,10 5,10 2.24,10 0,7.76 0,5 z"
       copytype="single_stretched"
       prop_scale="1"
       scale_y_rel="false"
       spacing="0"
       normal_offset="0"
       tang_offset="0"
       prop_units="false"
       vertical_pattern="false"
       fuse_tolerance="0" />
    <inkscape:path-effect
       effect="skeletal"
       id="path-effect4058"
       is_visible="true"
       pattern="M 0,5 C 0,2.24 2.24,0 5,0 7.76,0 10,2.24 10,5 10,7.76 7.76,10 5,10 2.24,10 0,7.76 0,5 z"
       copytype="single_stretched"
       prop_scale="1"
       scale_y_rel="false"
       spacing="0"
       normal_offset="0"
       tang_offset="0"
       prop_units="false"
       vertical_pattern="false"
       fuse_tolerance="0" />
    <inkscape:path-effect
       effect="skeletal"
       id="path-effect4054"
       is_visible="true"
       pattern="M 0,5 C 0,2.24 2.24,0 5,0 7.76,0 10,2.24 10,5 10,7.76 7.76,10 5,10 2.24,10 0,7.76 0,5 z"
       copytype="single_stretched"
       prop_scale="1"
       scale_y_rel="false"
       spacing="0"
       normal_offset="0"
       tang_offset="0"
       prop_units="false"
       vertical_pattern="false"
       fuse_tolerance="0" />
    <inkscape:path-effect
       effect="skeletal"
       id="path-effect4050"
       is_visible="true"
       pattern="M 0,5 10,10 10,0 z"
       copytype="single_stretched"
       prop_scale="1"
       scale_y_rel="false"
       spacing="0"
       normal_offset="0"
       tang_offset="0"
       prop_units="false"
       vertical_pattern="false"
       fuse_tolerance="0" />
    <inkscape:path-effect
       effect="skeletal"
       id="path-effect4046"
       is_visible="true"
       pattern="M 0,5 C 0,2.24 2.24,0 5,0 7.76,0 10,2.24 10,5 10,7.76 7.76,10 5,10 2.24,10 0,7.76 0,5 z"
       copytype="single_stretched"
       prop_scale="1"
       scale_y_rel="false"
       spacing="0"
       normal_offset="0"
       tang_offset="0"
       prop_units="false"
       vertical_pattern="false"
       fuse_tolerance="0" />
    <inkscape:perspective
       sodipodi:type="inkscape:persp3d"
       inkscape:vp_x="220 : 574.75252 : 1"
       inkscape:vp_y="0 : 1000 : 0"
       inkscape:vp_z="564.09447 : 526.18108 : 1"
       inkscape:persp3d-origin="372.04724 : 350.78739 : 1"
       id="perspective3791" />
    <clipPath
       id="clipPath3755"
       clipPathUnits="userSpaceOnUse">
      <path
         id="path3757"
         d="m 546.397,658.086 -495.878,0 0,-426.485 495.878,0 0,426.485 z"
         inkscape:connector-curvature="0" />
    </clipPath>
    <clipPath
       id="clipPath3719"
       clipPathUnits="userSpaceOnUse">
      <path
         id="path3721"
         d="m 546.397,658.086 -495.878,0 0,-426.485 495.878,0 0,426.485 z"
         inkscape:connector-curvature="0" />
    </clipPath>
    <clipPath
       id="clipPath3834"
       clipPathUnits="userSpaceOnUse">
      <path
         id="path3836"
         d="m 546.397,658.086 -495.878,0 0,-426.485 495.878,0 0,426.485 z"
         inkscape:connector-curvature="0" />
    </clipPath>
    <clipPath
       id="clipPath3870"
       clipPathUnits="userSpaceOnUse">
      <path
         id="path3872"
         d="m 546.397,658.086 -495.878,0 0,-426.485 495.878,0 0,426.485 z"
         inkscape:connector-curvature="0" />
    </clipPath>
  </defs>
  <sodipodi:namedview
     id="base"
     pagecolor="#ffffff"
     bordercolor="#666666"
     borderopacity="1.0"
     inkscape:pageopacity="0.0"
     inkscape:pageshadow="2"
     inkscape:zoom="2"
     inkscape:cx="62.94084"
     inkscape:cy="8.7839222"
     inkscape:document-units="px"
     inkscape:current-layer="g3062"
     showgrid="true"
     inkscape:snap-grids="true"
     inkscape:snap-to-guides="true"
     inkscape:window-width="1600"
     inkscape:window-height="823"
     inkscape:window-x="0"
     inkscape:window-y="25"
     inkscape:window-maximized="1"
     fit-margin-top="0"
     fit-margin-left="0"
     fit-margin-right="0"
     fit-margin-bottom="0"
     showguides="true">
    <inkscape:grid
       type="xygrid"
       id="grid3900"
       empspacing="5"
       visible="true"
       enabled="true"
       snapvisiblegridlinesonly="true"
       originx="4.9455752px"
       originy="-519.02459px" />
  </sodipodi:namedview>
  <metadata
     id="metadata6">
    <rdf:RDF>
      <cc:Work
         rdf:about="">
        <dc:format>image/svg+xml</dc:format>
        <dc:type
           rdf:resource="http://purl.org/dc/dcmitype/StillImage" />
        <dc:title></dc:title>
      </cc:Work>
    </rdf:RDF>
  </metadata>
  <g
     inkscape:label="Vrstva 1"
     inkscape:groupmode="layer"
     id="layer1"
     transform="translate(4.9455752,-474.20292)">
    <g
       id="g3062">
      <flowRoot
         style="font-size:40px;font-style:normal;font-weight:normal;line-height:125%;letter-spacing:0px;word-spacing:0px;fill:#000000;fill-opacity:1;stroke:none;font-family:Sans"
         id="flowRoot3845"
         xml:space="preserve"><flowRegion
           id="flowRegion3847"><rect
             y="684.74597"
             x="9.7813625"
             height="191.55168"
             width="212.74464"
             id="rect3849" /></flowRegion><flowPara
           id="flowPara3851" /></flowRoot>      <flowRoot
         style="font-size:40px;font-style:normal;font-weight:normal;line-height:125%;letter-spacing:0px;word-spacing:0px;fill:#000000;fill-opacity:1;stroke:none;font-family:Sans"
         id="flowRoot3853"
         xml:space="preserve"><flowRegion
           id="flowRegion3855"><rect
             y="754.03064"
             x="274.69327"
             height="119.82167"
             width="96.998505"
             id="rect3857" /></flowRegion><flowPara
           id="flowPara3859" /></flowRoot>      <flowRoot
         style="font-size:40px;font-style:normal;font-weight:normal;line-height:125%;letter-spacing:0px;word-spacing:0px;fill:#000000;fill-opacity:1;stroke:none;font-family:Sans"
         id="flowRoot3861"
         xml:space="preserve"><flowRegion
           id="flowRegion3863"><rect
             y="599.15906"
             x="-49.721928"
             height="392.88474"
             width="626.82233"
             id="rect3865" /></flowRegion><flowPara
           id="flowPara3867" /></flowRoot>      <path
         inkscape:connector-curvature="0"
         id="path4028"
         d=""
         style="fill:#b3b3b3;fill-opacity:1;stroke:#cccccc;stroke-width:0;stroke-miterlimit:4;stroke-dasharray:none" />
      <flowRoot
         style="font-size:40px;font-style:normal;font-weight:normal;line-height:125%;letter-spacing:0px;word-spacing:0px;fill:#000000;fill-opacity:1;stroke:none;font-family:Sans"
         id="flowRoot4096"
         xml:space="preserve"><flowRegion
           id="flowRegion4098"><rect
             y="-197.13782"
             x="364.5"
             height="52.5"
             width="14"
             id="rect4100" /></flowRegion><flowPara
           id="flowPara4102" /></flowRoot>      <flowRoot
         style="font-size:72px;font-style:normal;font-variant:normal;font-weight:bold;font-stretch:normal;text-align:start;line-height:125%;letter-spacing:0px;word-spacing:0px;writing-mode:lr-tb;text-anchor:start;fill:#000000;fill-opacity:1;stroke:none;font-family:Arial Black;-inkscape-font-specification:'Arial Black, Bold'"
         id="flowRoot4104"
         xml:space="preserve"><flowRegion
           id="flowRegion4106"><rect
             style="font-size:72px;font-style:normal;font-variant:normal;font-weight:bold;font-stretch:normal;text-align:start;line-height:125%;writing-mode:lr-tb;text-anchor:start;font-family:Arial Black;-inkscape-font-specification:'Arial Black, Bold'"
             y="-200.63782"
             x="358.5"
             height="72"
             width="49.5"
             id="rect4108" /></flowRegion><flowPara
           id="flowPara4110">BBB</flowPara></flowRoot>      <flowRoot
         style="font-size:40px;font-style:normal;font-weight:normal;line-height:125%;letter-spacing:0px;word-spacing:0px;writing-mode:tb-rl;fill:#000000;fill-opacity:1;stroke:none;font-family:Sans"
         id="flowRoot4120"
         xml:space="preserve"><flowRegion
           id="flowRegion4122"><rect
             style="writing-mode:tb-rl"
             y="-210.13782"
             x="334"
             height="102"
             width="16"
             id="rect4124" /></flowRegion><flowPara
           id="flowPara4126" /></flowRoot>      <flowRoot
         style="font-size:40px;font-style:normal;font-weight:normal;line-height:125%;letter-spacing:0px;word-spacing:0px;writing-mode:tb-rl;fill:#000000;fill-opacity:1;stroke:none;font-family:Sans"
         id="flowRoot4128"
         xml:space="preserve"><flowRegion
           id="flowRegion4130"><rect
             y="-262.63782"
             x="610.5"
             height="190.5"
             width="24.5"
             id="rect4132" /></flowRegion><flowPara
           id="flowPara4134">Engineering</flowPara><flowPara
           id="flowPara4136" /></flowRoot>      <path
         id="path3828"
         style="fill:#ffffff;fill-opacity:1;fill-rule:nonzero;stroke:none"
         d="m -4.9455752,533.33762 59.1344002,0 0,-59.1347 -59.1344002,0 0,59.1347 z"
         inkscape:connector-curvature="0" />
      <path
         id="path3840"
         style="fill:#ff0000;fill-opacity:1;fill-rule:nonzero;stroke:none"
         d="m 49.428493,523.82214 -8.997444,0 0,-13.99355 -9.432266,0 0,13.99355 -8.997596,0 0,-36.17678 8.997596,0 0,12.14925 9.432266,0 0,-12.14925 8.997444,0 0,36.17678"
         inkscape:connector-curvature="0" />
      <path
         id="path3842"
         style="fill:#010202;fill-opacity:1;fill-rule:nonzero;stroke:none"
         d="m 13.971233,507.44949 c 3.473088,0 4.440273,-0.8096 4.440273,-3.77852 0,-2.96876 -0.967185,-3.77836 -4.440273,-3.77836 l -5.0558521,0 0,7.55688 5.0558521,0 z m 0,-14.9519 c 1.362838,0 2.154296,-0.16186 2.593842,-0.53968 0.483593,-0.48588 0.835352,-1.51143 0.835352,-2.59094 0,-1.29548 -0.439699,-2.37499 -1.099171,-2.75296 -0.395653,-0.26976 -1.274898,-0.37782 -2.330023,-0.37782 l -5.0558521,0 0,6.2614 5.0558521,0 z m 2.857662,-13.65627 c 3.780801,0 6.023037,0.75564 7.649694,2.59095 1.406884,1.56523 2.154296,3.88642 2.154296,6.53132 0,3.6165 -1.143064,5.61367 -4.528365,8.0426 3.824847,1.61934 5.539444,4.3182 5.539444,8.74429 0,3.56256 -1.406884,6.85519 -3.648967,8.47453 -1.450931,1.02572 -4.176607,1.61935 -7.649695,1.61935 l -16.53039337,0 0,-36.00304 17.01398637,0"
         inkscape:connector-curvature="0" />
      <g
         transform="scale(0.99126144,1.0088156)"
         style="font-size:31.40519142000000130px;font-style:normal;font-variant:normal;font-weight:normal;font-stretch:normal;line-height:125%;letter-spacing:0px;word-spacing:0px;fill:#ffffff;fill-opacity:1;stroke:none;font-family:Akhand-Extralight;-inkscape-font-specification:Akhand-Extralight"
         id="text3031">
        <path
           d="m 83.656517,507.31082 c 0,2.56266 -1.31902,3.80631 -3.957052,3.80631 l -3.994738,0 0,-9.8361 3.994738,0 c 2.638032,0 3.957052,1.28133 3.957052,3.8063 l 0,2.22349 m -4.220855,-17.52409 c 2.638032,0 3.957051,1.28134 3.957051,3.80631 l 0,1.95968 c 0,2.56266 -1.319019,3.80631 -3.957051,3.80631 l -3.730935,0 0,-9.5723 3.730935,0 m 6.142851,3.76862 c 0,-1.73356 -0.527608,-3.09027 -1.545134,-4.14548 -1.017527,-1.01752 -2.524978,-1.54513 -4.560031,-1.54513 l -5.916735,0 0,25.17438 6.180538,0 c 2.035053,0 3.542505,-0.48992 4.560031,-1.54513 0.979841,-1.05521 1.507449,-2.44961 1.507449,-4.18317 l 0,-2.1858 c 0,-2.48729 -1.01753,-4.1078 -3.014897,-4.86152 1.846622,-0.75372 2.788779,-2.33655 2.788779,-4.74846 l 0,-1.95969"
           style="font-size:37.68620682000000244px;text-align:start;line-height:125%;writing-mode:lr-tb;text-anchor:start;fill:#ffffff;font-family:Akhand-Light;-inkscape-font-specification:Akhand-Light"
           id="path3192" />
        <path
           d="m 91.295629,510.40109 c -0.97984,0 -1.432076,0.48992 -1.432076,1.43207 0,0.94216 0.452236,1.39439 1.432076,1.39439 0.942154,0 1.432076,-0.45223 1.432076,-1.39439 0,-0.94215 -0.489922,-1.43207 -1.432076,-1.43207"
           style="font-size:37.68620682000000244px;text-align:start;line-height:125%;writing-mode:lr-tb;text-anchor:start;fill:#ffffff;font-family:Akhand-Light;-inkscape-font-specification:Akhand-Light"
           id="path3194" />
        <path
           d="m 107.88698,487.86474 0,11.87115 -8.554767,0 0,-11.87115 -2.148113,0 0,25.17438 2.148113,0 0,-11.38123 8.554767,0 0,11.38123 2.22349,0 0,-25.17438 -2.22349,0"
           style="font-size:37.68620682000000244px;text-align:start;line-height:125%;writing-mode:lr-tb;text-anchor:start;fill:#ffffff;font-family:Akhand-Light;-inkscape-font-specification:Akhand-Light"
           id="path3196" />
        <path
           d="m 115.9536,510.40109 c -0.97984,0 -1.43208,0.48992 -1.43208,1.43207 0,0.94216 0.45224,1.39439 1.43208,1.39439 0.94215,0 1.43207,-0.45223 1.43207,-1.39439 0,-0.94215 -0.48992,-1.43207 -1.43207,-1.43207"
           style="font-size:37.68620682000000244px;text-align:start;line-height:125%;writing-mode:lr-tb;text-anchor:start;fill:#ffffff;font-family:Akhand-Light;-inkscape-font-specification:Akhand-Light"
           id="path3198" />
        <path
           d="m 132.43189,511.11713 -8.44171,0 0,-9.79842 7.3865,0 0,-1.92199 -7.3865,0 0,-9.60999 8.44171,0 0,-1.92199 -10.58982,0 0,25.17438 10.58982,0 0,-1.92199"
           style="font-size:37.68620682000000244px;text-align:start;line-height:125%;writing-mode:lr-tb;text-anchor:start;fill:#ffffff;font-family:Akhand-Light;-inkscape-font-specification:Akhand-Light"
           id="path3200" />
        <path
           d="m 138.44932,513.03912 0,-15.97895 c 0,-1.05521 0.37686,-1.922 1.13058,-2.56266 0.75373,-0.60298 1.6582,-0.94216 2.71341,-0.94216 2.33654,0 3.50482,1.20597 3.50482,3.61788 l 0,15.86589 2.14811,0 0,-15.97895 c 0,-1.65819 -0.45223,-2.97721 -1.3567,-3.95705 -0.90447,-0.97984 -2.14812,-1.46976 -3.73094,-1.46976 -1.28133,0 -2.26117,0.2638 -3.01489,0.79141 -0.75373,0.5276 -1.24365,1.05521 -1.43208,1.54513 l 0,-2.22348 -2.11043,0 0,21.2927 2.14812,0"
           style="font-size:37.68620682000000244px;text-align:start;line-height:125%;writing-mode:lr-tb;text-anchor:start;fill:#ffffff;font-family:Akhand-Light;-inkscape-font-specification:Akhand-Light"
           id="path3202" />
        <path
           d="m 162.3883,499.77358 c 0,2.37423 -1.31902,3.5425 -3.95705,3.5425 -2.67572,0 -3.99474,-1.16827 -3.99474,-3.5425 l 0,-2.97721 c 0,-2.33654 1.31902,-3.54251 3.99474,-3.54251 2.63803,0 3.95705,1.20597 3.95705,3.54251 l 0,2.97721 m 3.99474,-7.31113 0,-2.1858 -0.56529,0 c -1.73357,0 -2.82647,0.71604 -3.2787,2.14812 -1.01753,-0.67835 -2.37423,-1.05522 -4.1078,-1.05522 -2.07274,0 -3.61788,0.48993 -4.6354,1.43208 -1.01753,0.97984 -1.50745,2.29886 -1.50745,3.99474 l 0,2.97721 c 0,2.75109 1.24365,4.48466 3.76862,5.16301 -1.28133,0.33917 -1.922,1.16827 -1.922,2.4496 l 0,0.60298 c 0,1.05521 0.37687,1.84663 1.16828,2.37423 0.75372,0.5653 1.88431,0.8291 3.35407,0.8291 l 2.26117,0 c 1.20596,0 1.99737,0.22612 2.37423,0.60298 0.37686,0.41455 0.60298,1.01753 0.60298,1.84662 l 0,0.41455 c 0,1.80894 -1.54514,2.67572 -4.59772,2.67572 l -1.46976,0 c -2.26117,0 -4.14548,-0.41455 -5.69062,-1.28133 l 0,2.11043 c 1.31902,0.75372 3.20333,1.13058 5.69062,1.13058 l 1.54514,0 c 4.44696,0 6.67046,-1.54513 6.67046,-4.67309 l 0,-0.41454 c 0,-2.86415 -1.69589,-4.33392 -5.08764,-4.33392 l -2.22349,0 c -0.97984,0 -1.65819,-0.15074 -2.03505,-0.45223 -0.41455,-0.30149 -0.60298,-0.75373 -0.60298,-1.43208 0,-1.43207 0.75372,-2.1858 2.33654,-2.1858 2.03505,0 3.54251,-0.45223 4.56003,-1.43207 1.01753,-0.97984 1.54514,-2.29886 1.54514,-3.99474 l 0,-2.97721 c 0,-1.50745 -0.41455,-2.7511 -1.24365,-3.69325 0.45224,-0.41455 1.0929,-0.64067 1.84663,-0.64067 l 1.24364,0"
           style="font-size:37.68620682000000244px;text-align:start;line-height:125%;writing-mode:lr-tb;text-anchor:start;fill:#ffffff;font-family:Akhand-Light;-inkscape-font-specification:Akhand-Light"
           id="path3204" />
        <path
           d="m 169.49745,513.03912 2.14812,0 0,-21.25502 -2.14812,0 0,21.25502 m 1.0929,-27.05869 c -0.94215,0 -1.39439,0.48992 -1.39439,1.39439 0,0.90446 0.45224,1.3567 1.39439,1.3567 0.90447,0 1.39439,-0.45224 1.39439,-1.3567 0,-0.90447 -0.48992,-1.39439 -1.39439,-1.39439"
           style="font-size:37.68620682000000244px;text-align:start;line-height:125%;writing-mode:lr-tb;text-anchor:start;fill:#ffffff;font-family:Akhand-Light;-inkscape-font-specification:Akhand-Light"
           id="path3206" />
        <path
           d="m 179.30057,513.03912 0,-15.97895 c 0,-1.05521 0.37687,-1.922 1.13059,-2.56266 0.75372,-0.60298 1.65819,-0.94216 2.71341,-0.94216 2.33654,0 3.50481,1.20597 3.50481,3.61788 l 0,15.86589 2.14812,0 0,-15.97895 c 0,-1.65819 -0.45224,-2.97721 -1.35671,-3.95705 -0.90446,-0.97984 -2.14811,-1.46976 -3.73093,-1.46976 -1.28133,0 -2.26117,0.2638 -3.0149,0.79141 -0.75372,0.5276 -1.24364,1.05521 -1.43207,1.54513 l 0,-2.22348 -2.11043,0 0,21.2927 2.14811,0"
           style="font-size:37.68620682000000244px;text-align:start;line-height:125%;writing-mode:lr-tb;text-anchor:start;fill:#ffffff;font-family:Akhand-Light;-inkscape-font-specification:Akhand-Light"
           id="path3208" />
        <path
           d="m 195.85306,501.0926 0,-3.91937 c 0,-2.56266 1.28134,-3.88168 3.844,-3.88168 2.52497,0 3.8063,1.31902 3.8063,3.88168 l 0,3.91937 -7.6503,0 m -2.14811,6.48202 c 0,1.77125 0.48992,3.20333 1.46976,4.25854 0.97984,1.05522 2.48729,1.58283 4.52235,1.58283 1.95968,0 3.46713,-0.52761 4.44697,-1.58283 0.97984,-1.05521 1.50745,-2.48729 1.50745,-4.25854 l 0,-1.28133 -2.14812,0 0,1.31902 c 0,2.56266 -1.28133,3.84399 -3.8063,3.84399 -2.56266,0 -3.844,-1.28133 -3.844,-3.84399 l 0,-4.6354 9.79842,0 0,-5.80368 c 0,-1.73356 -0.52761,-3.16564 -1.50745,-4.22085 -0.97984,-1.05522 -2.48729,-1.58283 -4.44697,-1.58283 -2.03506,0 -3.54251,0.52761 -4.52235,1.58283 -0.97984,1.05521 -1.46976,2.48729 -1.46976,4.22085 l 0,10.40139"
           style="font-size:37.68620682000000244px;text-align:start;line-height:125%;writing-mode:lr-tb;text-anchor:start;fill:#ffffff;font-family:Akhand-Light;-inkscape-font-specification:Akhand-Light"
           id="path3210" />
        <path
           d="m 212.5616,501.0926 0,-3.91937 c 0,-2.56266 1.28133,-3.88168 3.84399,-3.88168 2.52497,0 3.80631,1.31902 3.80631,3.88168 l 0,3.91937 -7.6503,0 m -2.14812,6.48202 c 0,1.77125 0.48993,3.20333 1.46977,4.25854 0.97984,1.05522 2.48729,1.58283 4.52234,1.58283 1.95968,0 3.46713,-0.52761 4.44697,-1.58283 0.97984,-1.05521 1.50745,-2.48729 1.50745,-4.25854 l 0,-1.28133 -2.14811,0 0,1.31902 c 0,2.56266 -1.28134,3.84399 -3.80631,3.84399 -2.56266,0 -3.84399,-1.28133 -3.84399,-3.84399 l 0,-4.6354 9.79841,0 0,-5.80368 c 0,-1.73356 -0.52761,-3.16564 -1.50745,-4.22085 -0.97984,-1.05522 -2.48729,-1.58283 -4.44697,-1.58283 -2.03505,0 -3.5425,0.52761 -4.52234,1.58283 -0.97984,1.05521 -1.46977,2.48729 -1.46977,4.22085 l 0,10.40139"
           style="font-size:37.68620682000000244px;text-align:start;line-height:125%;writing-mode:lr-tb;text-anchor:start;fill:#ffffff;font-family:Akhand-Light;-inkscape-font-specification:Akhand-Light"
           id="path3212" />
        <path
           d="m 234.62157,491.67104 c -0.15075,0 -0.41455,-0.0377 -0.71604,-0.0377 -1.24365,0 -2.22349,0.30149 -2.93953,0.86678 -0.75372,0.56529 -1.20595,1.20596 -1.3567,1.88431 l 0,-2.63803 -2.11043,0 0,21.2927 2.14812,0 0,-15.5644 c 0,-1.0929 0.33917,-1.99737 1.01752,-2.67572 0.67836,-0.67835 1.50745,-1.05521 2.48729,-1.05521 0.60298,0 1.0929,0.0377 1.46977,0.11305 l 0,-2.1858"
           style="font-size:37.68620682000000244px;text-align:start;line-height:125%;writing-mode:lr-tb;text-anchor:start;fill:#ffffff;font-family:Akhand-Light;-inkscape-font-specification:Akhand-Light"
           id="path3214" />
        <path
           d="m 237.58287,513.03912 2.14812,0 0,-21.25502 -2.14812,0 0,21.25502 m 1.0929,-27.05869 c -0.94215,0 -1.39439,0.48992 -1.39439,1.39439 0,0.90446 0.45224,1.3567 1.39439,1.3567 0.90447,0 1.39439,-0.45224 1.39439,-1.3567 0,-0.90447 -0.48992,-1.39439 -1.39439,-1.39439"
           style="font-size:37.68620682000000244px;text-align:start;line-height:125%;writing-mode:lr-tb;text-anchor:start;fill:#ffffff;font-family:Akhand-Light;-inkscape-font-specification:Akhand-Light"
           id="path3216" />
        <path
           d="m 247.386,513.03912 0,-15.97895 c 0,-1.05521 0.37686,-1.922 1.13059,-2.56266 0.75372,-0.60298 1.65819,-0.94216 2.7134,-0.94216 2.33655,0 3.50482,1.20597 3.50482,3.61788 l 0,15.86589 2.14811,0 0,-15.97895 c 0,-1.65819 -0.45223,-2.97721 -1.3567,-3.95705 -0.90447,-0.97984 -2.14811,-1.46976 -3.73093,-1.46976 -1.28133,0 -2.26118,0.2638 -3.0149,0.79141 -0.75372,0.5276 -1.24364,1.05521 -1.43208,1.54513 l 0,-2.22348 -2.11042,0 0,21.2927 2.14811,0"
           style="font-size:37.68620682000000244px;text-align:start;line-height:125%;writing-mode:lr-tb;text-anchor:start;fill:#ffffff;font-family:Akhand-Light;-inkscape-font-specification:Akhand-Light"
           id="path3218" />
        <path
           d="m 271.32499,499.77358 c 0,2.37423 -1.31902,3.5425 -3.95706,3.5425 -2.67571,0 -3.99473,-1.16827 -3.99473,-3.5425 l 0,-2.97721 c 0,-2.33654 1.31902,-3.54251 3.99473,-3.54251 2.63804,0 3.95706,1.20597 3.95706,3.54251 l 0,2.97721 m 3.99473,-7.31113 0,-2.1858 -0.56529,0 c -1.73356,0 -2.82646,0.71604 -3.2787,2.14812 -1.01753,-0.67835 -2.37423,-1.05522 -4.1078,-1.05522 -2.07273,0 -3.61787,0.48993 -4.6354,1.43208 -1.01753,0.97984 -1.50745,2.29886 -1.50745,3.99474 l 0,2.97721 c 0,2.75109 1.24365,4.48466 3.76862,5.16301 -1.28133,0.33917 -1.92199,1.16827 -1.92199,2.4496 l 0,0.60298 c 0,1.05521 0.37686,1.84663 1.16827,2.37423 0.75372,0.5653 1.88431,0.8291 3.35407,0.8291 l 2.26117,0 c 1.20596,0 1.99737,0.22612 2.37424,0.60298 0.37686,0.41455 0.60297,1.01753 0.60297,1.84662 l 0,0.41455 c 0,1.80894 -1.54513,2.67572 -4.59771,2.67572 l -1.46976,0 c -2.26117,0 -4.14549,-0.41455 -5.69062,-1.28133 l 0,2.11043 c 1.31901,0.75372 3.20333,1.13058 5.69062,1.13058 l 1.54513,0 c 4.44697,0 6.67046,-1.54513 6.67046,-4.67309 l 0,-0.41454 c 0,-2.86415 -1.69588,-4.33392 -5.08764,-4.33392 l -2.22349,0 c -0.97984,0 -1.65819,-0.15074 -2.03505,-0.45223 -0.41455,-0.30149 -0.60298,-0.75373 -0.60298,-1.43208 0,-1.43207 0.75373,-2.1858 2.33654,-2.1858 2.03506,0 3.54251,-0.45223 4.56004,-1.43207 1.01752,-0.97984 1.54513,-2.29886 1.54513,-3.99474 l 0,-2.97721 c 0,-1.50745 -0.41455,-2.7511 -1.24364,-3.69325 0.45223,-0.41455 1.0929,-0.64067 1.84662,-0.64067 l 1.24364,0"
           style="font-size:37.68620682000000244px;text-align:start;line-height:125%;writing-mode:lr-tb;text-anchor:start;fill:#ffffff;font-family:Akhand-Light;-inkscape-font-specification:Akhand-Light"
           id="path3220" />
      </g>
      <flowRoot
         xml:space="preserve"
         id="flowRoot3222"
         style="fill:black;stroke:none;stroke-opacity:1;stroke-width:1px;stroke-linejoin:miter;stroke-linecap:butt;fill-opacity:1;font-family:Akhand-Extralight;font-style:normal;font-weight:normal;font-size:40px;line-height:125%;letter-spacing:0px;word-spacing:0px;-inkscape-font-specification:Akhand-Extralight;font-stretch:normal;font-variant:normal"><flowRegion
           id="flowRegion3224"><rect
             id="rect3226"
             width="221.5"
             height="50"
             x="70.5"
             y="9.6347008" /></flowRegion><flowPara
           id="flowPara3228"></flowPara></flowRoot>    </g>
  </g>
</svg>
