<?xml version="1.0" encoding="UTF-8" standalone="no"?>
<!-- Created with Inkscape (http://www.inkscape.org/) -->

<svg
   xmlns:dc="http://purl.org/dc/elements/1.1/"
   xmlns:cc="http://creativecommons.org/ns#"
   xmlns:rdf="http://www.w3.org/1999/02/22-rdf-syntax-ns#"
   xmlns:svg="http://www.w3.org/2000/svg"
   xmlns="http://www.w3.org/2000/svg"
   xmlns:sodipodi="http://sodipodi.sourceforge.net/DTD/sodipodi-0.dtd"
   xmlns:inkscape="http://www.inkscape.org/namespaces/inkscape"
   width="204.62521"
   height="41.10191"
   id="svg2"
   inkscape:label="Pozadí"
   version="1.1"
   inkscape:version="0.48.4 r9939"
   sodipodi:docname="logo_simple3.svg">
  <defs
     id="defs3" />
  <sodipodi:namedview
     id="base"
     pagecolor="#ffffff"
     bordercolor="#666666"
     borderopacity="1.0"
     inkscape:pageopacity="0.0"
     inkscape:pageshadow="2"
     inkscape:zoom="4.2481217"
     inkscape:cx="121.09856"
     inkscape:cy="4.4385017"
     inkscape:document-units="px"
     inkscape:current-layer="g3062"
     showgrid="true"
     inkscape:snap-grids="true"
     inkscape:snap-to-guides="true"
     inkscape:window-width="1600"
     inkscape:window-height="823"
     inkscape:window-x="0"
     inkscape:window-y="25"
     inkscape:window-maximized="1"
     fit-margin-top="0"
     fit-margin-left="0"
     fit-margin-right="0"
     fit-margin-bottom="0"
     showguides="true" />
  <g
     inkscape:label="Vrstva 1"
     inkscape:groupmode="layer"
     id="layer1"
     transform="translate(-96.157952,-487.68029)">
    <g
       id="g3062">
      <g
         id="g3822"
         inkscape:label="logo white BH"
         transform="matrix(0.10593248,0,0,-0.10593248,84.984088,557.28704)">
        <path
           inkscape:connector-curvature="0"
           d="m 105.481,269.085 387.999,0 0,388.001 -387.999,0 0,-388.001 z"
           style="fill:#ffffff;fill-opacity:1;fill-rule:nonzero;stroke:none"
           id="path3828" />
        <path
           inkscape:connector-curvature="0"
           d="m 462.246,331.519 -59.035,0 0,91.816 -61.888,0 0,-91.816 -59.036,0 0,237.367 59.036,0 0,-79.715 61.888,0 0,79.715 59.035,0 0,-237.367"
           style="fill:#ea2928;fill-opacity:1;fill-rule:nonzero;stroke:none"
           id="path3840" />
        <path
           inkscape:connector-curvature="0"
           d="m 229.6,438.945 c 22.788,0 29.134,5.312 29.134,24.792 0,19.479 -6.346,24.791 -29.134,24.791 l -33.173,0 0,-49.583 33.173,0 z m 0,98.104 c 8.942,0 14.135,1.062 17.019,3.541 3.173,3.188 5.481,9.917 5.481,17 0,8.5 -2.885,15.583 -7.212,18.063 -2.596,1.77 -8.365,2.479 -15.288,2.479 l -33.173,0 0,-41.083 33.173,0 z m 18.75,89.603 c 24.807,0 39.519,-4.958 50.192,-17 9.231,-10.27 14.135,-25.5 14.135,-42.854 0,-23.729 -7.5,-36.833 -29.712,-52.77 25.096,-10.625 36.346,-28.333 36.346,-57.374 0,-23.375 -9.231,-44.979 -23.942,-55.604 -9.52,-6.73 -27.404,-10.625 -50.192,-10.625 l -108.461,0 0,236.227 111.634,0"
           style="fill:#010202;fill-opacity:1;fill-rule:nonzero;stroke:none"
           id="path3842" />
      </g>
      <g
         style="font-size:28px;font-style:normal;font-variant:normal;font-weight:normal;font-stretch:normal;text-align:start;line-height:125%;letter-spacing:0px;word-spacing:0px;writing-mode:lr-tb;text-anchor:start;fill:#ffffff;fill-opacity:1;stroke:none;font-family:Akhand-Extralight;-inkscape-font-specification:Akhand-Extralight"
         id="text3043"
         transform="matrix(1,0,0,0.91232481,3.5309721,45.490212)">
        <path
           d="m 154.744,513.16218 c 0,1.96 -1.036,2.94 -3.052,2.94 l -3.052,0 0,-7.532 3.052,0 c 2.016,0 3.052,0.98 3.052,2.94 l 0,1.652 m -3.248,-13.188 c 2.016,0 3.052,0.98 3.052,2.94 l 0,1.456 c 0,1.96 -1.036,2.94 -3.052,2.94 l -2.856,0 0,-7.336 2.856,0 m 4.452,2.94 c 0,-1.26 -0.392,-2.268 -1.12,-3.052 -0.756,-0.756 -1.876,-1.148 -3.332,-1.148 l -4.256,0 0,18.648 4.452,0 c 1.456,0 2.576,-0.364 3.332,-1.148 0.728,-0.756 1.12,-1.764 1.12,-3.052 l 0,-1.652 c 0,-1.848 -0.784,-3.052 -2.296,-3.612 1.4,-0.56 2.1,-1.736 2.1,-3.528 l 0,-1.456"
           id="path4618"
           inkscape:connector-curvature="0"
           style="fill:#ffffff" />
        <path
           d="m 160.197,515.57018 c -0.644,0 -0.952,0.336 -0.952,0.98 0,0.644 0.308,0.952 0.952,0.952 0.644,0 0.98,-0.308 0.98,-0.952 0,-0.644 -0.336,-0.98 -0.98,-0.98"
           id="path4620"
           inkscape:connector-curvature="0"
           style="fill:#ffffff" />
        <path
           d="m 172.47325,498.71418 0,8.876 -6.552,0 0,-8.876 -1.4,0 0,18.648 1.4,0 0,-8.512 6.552,0 0,8.512 1.428,0 0,-18.648 -1.428,0"
           id="path4622"
           inkscape:connector-curvature="0"
           style="fill:#ffffff" />
        <path
           d="m 178.18919,515.57018 c -0.644,0 -0.952,0.336 -0.952,0.98 0,0.644 0.308,0.952 0.952,0.952 0.644,0 0.98,-0.308 0.98,-0.952 0,-0.644 -0.336,-0.98 -0.98,-0.98"
           id="path4624"
           inkscape:connector-curvature="0"
           style="fill:#ffffff" />
        <path
           d="m 183.49344,508.59818 0,-2.996 c 0,-2.016 0.98,-3.024 2.968,-3.024 1.96,0 2.968,1.008 2.968,3.024 l 0,2.996 -5.936,0 m -1.4,4.76 c 0,1.288 0.336,2.324 1.064,3.108 0.728,0.784 1.82,1.176 3.304,1.176 1.456,0 2.548,-0.392 3.276,-1.176 0.728,-0.784 1.092,-1.82 1.092,-3.108 l 0,-0.952 -1.4,0 0,0.952 c 0,2.016 -1.008,3.024 -2.968,3.024 -1.988,0 -2.968,-1.008 -2.968,-3.024 l 0,-3.5 7.336,0 0,-4.256 c 0,-1.288 -0.364,-2.324 -1.092,-3.108 -0.728,-0.784 -1.82,-1.176 -3.276,-1.176 -1.484,0 -2.576,0.392 -3.304,1.176 -0.728,0.784 -1.064,1.82 -1.064,3.108 l 0,7.756"
           id="path4626"
           inkscape:connector-curvature="0"
           style="fill:#ffffff" />
        <path
           d="m 196.13281,517.36218 0,-11.872 c 0,-0.84 0.28,-1.484 0.896,-1.988 0.588,-0.476 1.288,-0.728 2.1,-0.728 1.792,0 2.688,0.952 2.688,2.8 l 0,11.788 1.4,0 0,-11.788 c 0,-1.26 -0.336,-2.24 -1.008,-2.968 -0.672,-0.728 -1.596,-1.092 -2.772,-1.092 -0.98,0 -1.736,0.196 -2.296,0.588 -0.56,0.392 -0.896,0.784 -1.036,1.148 l 0,-1.652 -1.372,0 0,15.764 1.4,0"
           id="path4628"
           inkscape:connector-curvature="0"
           style="fill:#ffffff" />
        <path
           d="m 214.11625,507.50618 c 0,0.924 -0.252,1.624 -0.728,2.072 -0.504,0.448 -1.288,0.672 -2.352,0.672 -1.092,0 -1.876,-0.224 -2.352,-0.672 -0.504,-0.448 -0.728,-1.148 -0.728,-2.072 l 0,-2.184 c 0,-0.896 0.224,-1.596 0.728,-2.044 0.476,-0.448 1.26,-0.7 2.352,-0.7 1.064,0 1.848,0.252 2.352,0.7 0.476,0.448 0.728,1.148 0.728,2.044 l 0,2.184 m 2.8,-5.488 0,-1.428 -0.42,0 c -1.288,0 -2.072,0.532 -2.408,1.54 -0.784,-0.532 -1.82,-0.812 -3.052,-0.812 -1.512,0 -2.632,0.364 -3.36,1.064 -0.756,0.728 -1.12,1.708 -1.12,2.94 l 0,2.184 c 0,2.072 0.924,3.332 2.772,3.808 -0.42,0.112 -0.756,0.336 -1.008,0.644 -0.28,0.308 -0.392,0.7 -0.392,1.148 l 0,0.448 c 0,0.784 0.28,1.372 0.868,1.764 0.56,0.42 1.372,0.616 2.436,0.616 l 1.68,0 c 0.924,0 1.54,0.168 1.848,0.476 0.308,0.336 0.476,0.812 0.476,1.456 l 0,0.308 c 0,1.4 -1.176,2.1 -3.5,2.1 l -1.12,0 c -1.624,0 -3.024,-0.308 -4.172,-0.924 l 0,1.4 c 1.008,0.532 2.38,0.784 4.172,0.784 l 1.148,0 c 3.248,0 4.872,-1.12 4.872,-3.388 l 0,-0.28 c 0,-2.128 -1.26,-3.192 -3.752,-3.192 l -1.652,0 c -0.728,0 -1.26,-0.112 -1.568,-0.336 -0.308,-0.224 -0.448,-0.616 -0.448,-1.12 0,-1.12 0.588,-1.708 1.82,-1.708 1.484,0 2.604,-0.336 3.36,-1.064 0.728,-0.7 1.12,-1.68 1.12,-2.94 l 0,-2.184 c 0,-1.148 -0.336,-2.072 -0.952,-2.772 0.392,-0.336 0.868,-0.532 1.428,-0.532 l 0.924,0"
           id="path4630"
           inkscape:connector-curvature="0"
           style="fill:#ffffff" />
        <path
           d="m 219.2875,517.36218 1.4,0 0,-15.764 -1.4,0 0,15.764 m 0.728,-19.992 c -0.616,0 -0.924,0.308 -0.924,0.924 0,0.616 0.308,0.924 0.924,0.924 0.616,0 0.924,-0.308 0.924,-0.924 0,-0.616 -0.308,-0.924 -0.924,-0.924"
           id="path4632"
           inkscape:connector-curvature="0"
           style="fill:#ffffff" />
        <path
           d="m 226.26562,517.36218 0,-11.872 c 0,-0.84 0.28001,-1.484 0.896,-1.988 0.588,-0.476 1.28801,-0.728 2.1,-0.728 1.792,0 2.688,0.952 2.688,2.8 l 0,11.788 1.4,0 0,-11.788 c 0,-1.26 -0.336,-2.24 -1.008,-2.968 -0.67199,-0.728 -1.596,-1.092 -2.772,-1.092 -0.97999,0 -1.736,0.196 -2.296,0.588 -0.55999,0.392 -0.896,0.784 -1.036,1.148 l 0,-1.652 -1.372,0 0,15.764 1.4,0"
           id="path4634"
           inkscape:connector-curvature="0"
           style="fill:#ffffff" />
        <path
           d="m 238.50906,508.59818 0,-2.996 c 0,-2.016 0.98,-3.024 2.968,-3.024 1.96,0 2.968,1.008 2.968,3.024 l 0,2.996 -5.936,0 m -1.4,4.76 c 0,1.288 0.336,2.324 1.064,3.108 0.728,0.784 1.82,1.176 3.304,1.176 1.456,0 2.548,-0.392 3.276,-1.176 0.728,-0.784 1.092,-1.82 1.092,-3.108 l 0,-0.952 -1.4,0 0,0.952 c 0,2.016 -1.008,3.024 -2.968,3.024 -1.988,0 -2.968,-1.008 -2.968,-3.024 l 0,-3.5 7.336,0 0,-4.256 c 0,-1.288 -0.364,-2.324 -1.092,-3.108 -0.728,-0.784 -1.82,-1.176 -3.276,-1.176 -1.484,0 -2.576,0.392 -3.304,1.176 -0.728,0.784 -1.064,1.82 -1.064,3.108 l 0,7.756"
           id="path4636"
           inkscape:connector-curvature="0"
           style="fill:#ffffff" />
        <path
           d="m 250.86844,508.59818 0,-2.996 c 0,-2.016 0.98,-3.024 2.968,-3.024 1.96,0 2.968,1.008 2.968,3.024 l 0,2.996 -5.936,0 m -1.4,4.76 c 0,1.288 0.336,2.324 1.064,3.108 0.728,0.784 1.82,1.176 3.304,1.176 1.456,0 2.548,-0.392 3.276,-1.176 0.728,-0.784 1.092,-1.82 1.092,-3.108 l 0,-0.952 -1.4,0 0,0.952 c 0,2.016 -1.008,3.024 -2.968,3.024 -1.988,0 -2.968,-1.008 -2.968,-3.024 l 0,-3.5 7.336,0 0,-4.256 c 0,-1.288 -0.364,-2.324 -1.092,-3.108 -0.728,-0.784 -1.82,-1.176 -3.276,-1.176 -1.484,0 -2.576,0.392 -3.304,1.176 -0.728,0.784 -1.064,1.82 -1.064,3.108 l 0,7.756"
           id="path4638"
           inkscape:connector-curvature="0"
           style="fill:#ffffff" />
        <path
           d="m 267.25981,501.54218 c -0.112,0 -0.308,-0.028 -0.532,-0.028 -0.924,0 -1.652,0.224 -2.212,0.644 -0.56,0.42 -0.896,0.868 -1.036,1.372 l 0,-1.932 -1.372,0 0,15.764 1.4,0 0,-11.648 c 0,-0.812 0.252,-1.484 0.784,-2.016 0.532,-0.532 1.148,-0.812 1.876,-0.812 0.448,0 0.812,0.028 1.092,0.084 l 0,-1.428"
           id="path4640"
           inkscape:connector-curvature="0"
           style="fill:#ffffff" />
        <path
           d="m 269.49063,517.36218 1.39999,0 0,-15.764 -1.39999,0 0,15.764 m 0.72799,-19.992 c -0.61599,0 -0.924,0.308 -0.924,0.924 0,0.616 0.30801,0.924 0.924,0.924 0.616,0 0.924,-0.308 0.924,-0.924 0,-0.616 -0.308,-0.924 -0.924,-0.924"
           id="path4642"
           inkscape:connector-curvature="0"
           style="fill:#ffffff" />
        <path
           d="m 276.46875,517.36218 0,-11.872 c 0,-0.84 0.28,-1.484 0.896,-1.988 0.588,-0.476 1.288,-0.728 2.1,-0.728 1.792,0 2.688,0.952 2.688,2.8 l 0,11.788 1.4,0 0,-11.788 c 0,-1.26 -0.336,-2.24 -1.008,-2.968 -0.672,-0.728 -1.596,-1.092 -2.772,-1.092 -0.98,0 -1.736,0.196 -2.296,0.588 -0.56,0.392 -0.896,0.784 -1.036,1.148 l 0,-1.652 -1.372,0 0,15.764 1.4,0"
           id="path4644"
           inkscape:connector-curvature="0"
           style="fill:#ffffff" />
        <path
           d="m 294.45219,507.50618 c 0,0.924 -0.252,1.624 -0.728,2.072 -0.504,0.448 -1.288,0.672 -2.352,0.672 -1.092,0 -1.876,-0.224 -2.352,-0.672 -0.504,-0.448 -0.728,-1.148 -0.728,-2.072 l 0,-2.184 c 0,-0.896 0.224,-1.596 0.728,-2.044 0.476,-0.448 1.26,-0.7 2.352,-0.7 1.064,0 1.848,0.252 2.352,0.7 0.476,0.448 0.728,1.148 0.728,2.044 l 0,2.184 m 2.8,-5.488 0,-1.428 -0.42,0 c -1.288,0 -2.072,0.532 -2.408,1.54 -0.784,-0.532 -1.82,-0.812 -3.052,-0.812 -1.512,0 -2.632,0.364 -3.36,1.064 -0.756,0.728 -1.12,1.708 -1.12,2.94 l 0,2.184 c 0,2.072 0.924,3.332 2.772,3.808 -0.42,0.112 -0.756,0.336 -1.008,0.644 -0.28,0.308 -0.392,0.7 -0.392,1.148 l 0,0.448 c 0,0.784 0.28,1.372 0.868,1.764 0.56,0.42 1.372,0.616 2.436,0.616 l 1.68,0 c 0.924,0 1.54,0.168 1.848,0.476 0.308,0.336 0.476,0.812 0.476,1.456 l 0,0.308 c 0,1.4 -1.176,2.1 -3.5,2.1 l -1.12,0 c -1.624,0 -3.024,-0.308 -4.172,-0.924 l 0,1.4 c 1.008,0.532 2.38,0.784 4.172,0.784 l 1.148,0 c 3.24799,0 4.872,-1.12 4.872,-3.388 l 0,-0.28 c 0,-2.128 -1.26,-3.192 -3.752,-3.192 l -1.652,0 c -0.728,0 -1.26,-0.112 -1.568,-0.336 -0.308,-0.224 -0.448,-0.616 -0.448,-1.12 0,-1.12 0.588,-1.708 1.82,-1.708 1.484,0 2.604,-0.336 3.36,-1.064 0.728,-0.7 1.12,-1.68 1.12,-2.94 l 0,-2.184 c 0,-1.148 -0.336,-2.072 -0.952,-2.772 0.392,-0.336 0.868,-0.532 1.428,-0.532 l 0.924,0"
           id="path4646"
           inkscape:connector-curvature="0"
           style="fill:#ffffff" />
      </g>
    </g>
  </g>
  <metadata
     id="metadata4937">
    <rdf:RDF>
      <cc:Work
         rdf:about="">
        <dc:title></dc:title>
      </cc:Work>
    </rdf:RDF>
  </metadata>
</svg>
